<svg viewBox="0 0 330 362" xmlns="http://www.w3.org/2000/svg" fill="#FFF"><path fill="#005C99" d="M0 90.6L165 .2l165 90.4v180.8l-165 90.4L0 271.4z"/><path d="M106.6 190.8a25.3 25.3 0 0 0 19.5-26c0-7-2-13-5.8-17.8-1.3-1.6-2.8-2.3-4.5-3.6a31 31 0 0 0-19.6-5.4H53v86h20v-30h14.5l17.4 30h21.7l-20-33.2zm-13-13.8H73v-26h20.6c7.4 0 13.1 5.6 13.1 12.9 0 7.5-5.7 13.1-13.1 13.1zM140.2 225.1v-88.5h62.6v16.6H159v18.6h43v16.6h-43V225h-18.8zm69.7-12.4l10.3-14.8a39 39 0 0 0 28.2 12.1c10.4 0 15.4-4.6 15.4-9.8 0-15.4-51-4.7-51-38 0-14.7 12.7-27 33.6-27 14 0 25.7 4.3 34.5 12.4l-10.5 14a38 38 0 0 0-25.8-9.6c-8 0-12.4 3.5-12.4 8.8 0 13.9 50.8 4.5 50.8 37.5 0 16.2-11.7 28.4-35.4 28.4a51.1 51.1 0 0 1-37.7-14z"/></svg>
