<svg xmlns="http://www.w3.org/2000/svg" viewBox="0 0 350 402" width="350" height="402"><path fill="#F36" d="M3 301.17l346-200.34v200.34L175.5 401.34"/><path fill="#28B3EE" d="M3 301.17V100.83L175.1.66 349 100.83"/><path fill="#FFF" d="M100.44 212.7c11.33-2.68 23.13-12.42 23.13-30.83 0-8.27-2.43-15.44-6.9-21.15-1.52-1.95-3.28-2.8-5.25-4.35-5.9-4.6-13.8-6.37-23.25-6.37H38v102h23v-35h16.8l20.6 35h25.8l-23.76-39.3zM85.02 196H61v-30h24.02c8.82 0 15.58 6.2 15.58 14.84 0 8.97-6.76 15.16-15.58 15.16zm55.23 57.3V148.38h74.26v19.67h-51.9v22.03h50.8v19.67h-50.8v43.57h-22.33zm82.6-14.77l12.27-17.47c7.4 7.7 18.88 14.32 33.36 14.32 12.43 0 18.25-5.5 18.25-11.65 0-18.25-60.42-5.5-60.42-45 0-17.46 15.14-31.93 39.84-31.93 16.67 0 30.52 5.04 40.9 14.63L294.6 178.1c-8.5-7.86-19.83-11.48-30.53-11.48-9.44 0-14.78 4.1-14.78 10.4 0 16.5 60.22 5.34 60.22 44.5 0 19.2-13.84 33.68-42 33.68-20.3 0-34.78-6.76-44.7-16.67z"/></svg>
